<svg fill="none" height="39" viewBox="0 0 300 39" width="300" xmlns="http://www.w3.org/2000/svg" xmlns:xlink="http://www.w3.org/1999/xlink"><clipPath id="a"><path d="m0 0h300v39h-300z"/></clipPath><g clip-path="url(#a)"><path d="m22.4602 3.99832c0-3.211765-3.1139-3.99832-5.5653-3.99832v.458824c1.4576 0 2.5839.458823 2.5839 1.638656 0 .65546-.4638 1.63865-1.9876 1.63865-1.1264 0-3.5778-.65546-5.3666-1.31092-2.1202-.78655-4.04156-1.442017-5.69792-1.442017-3.24647 0-5.565373 2.425207-5.565373 5.178147 0 2.42521 1.788873 3.21177 2.451413 3.5395l.13251-.32773c-.33127-.32773-.79505-.65546-.79505-1.63866 0-.65546.66254-1.76974 2.25265-1.76974 1.45759 0 3.44523.65546 6.02917 1.44201 2.2526.65547 4.704 1.11429 6.0291 1.31093v4.98155l-2.4514 2.0974v.1311l2.4514 2.0975v6.9479c-1.3251.7866-2.7827.9832-4.0415.9832-2.4514 0-4.57154-.6555-6.36041-2.5563l6.69171-3.2118v-11.14282l-8.0168 3.53952c.66254-2.0975 2.45141-3.53952 4.24028-4.52271l-.19876-.45883c-4.90283 1.31093-9.27562 5.83364-9.27562 11.27394 0 6.4235 5.36661 11.274 11.3958 11.274 6.4929 0 10.7332-5.1782 10.7332-10.4874h-.265c-.9939 2.0974-2.4515 3.9983-4.2403 4.9815v-6.6202l2.5839-2.0975v-.1311l-2.5839-2.0974v-4.98155c2.4514 0 4.8365-1.63866 4.8365-4.71933zm-14.1784 17.76298-1.98763.9832c-1.12633-1.442-1.78887-3.4084-1.78887-6.0958 0-1.1142 0-2.4252.33127-3.4084l3.44523-1.442zm17.2924 3.7362-2.1201 1.6386.3312.3278.9939-.7866 3.5777 3.2118 4.9028-3.2118-.1325-.3277-1.3251.7865-1.6563-1.6386v-11.0118l1.325-.9832 2.7827 2.2286v9.8319c0 6.0958-1.3251 7.079-4.0415 8.0622v.4588c4.5716.1311 8.8119-1.3109 8.8119-9.1764v-10.553l1.4575-1.1143-.3312-.3277-1.3251.9832-4.1078-3.4084-4.5715 3.4084v-13.240338h-.3313l-5.6979 3.867228v.32773c.6626.32773 1.6564.65546 1.6564 2.42521zm29.8145-1.7698-4.0415 3.0807-4.0415-3.2118v-1.9663l7.6855-5.1782v-.1311l-3.9753-5.8336-8.4806 4.5227v10.6185l-1.6563 1.3109.3312.3277 1.4576-1.1143 5.5654 3.9984 7.3543-5.8337zm-8.1493-2.7529v-7.9311l.3313-.1311 3.5777 5.637zm39.2889-18.4185c0-.45882-.1325-.98319-.3313-1.44201h-.3313c-.4637 1.31092-1.1263 1.96638-2.7827 1.96638-1.4576 0-2.4514-.78655-3.1139-1.44201l-4.7041 5.30924.3313.32773 1.6564-1.44202c.9938.78656 1.7888 1.44202 4.0415 1.63866v13.37143l-9.6069-16.32101c-.7951-1.31093-1.9876-3.08067-4.2403-3.08067-2.5839 0-4.9028 2.22857-4.5716 5.83361h.4638c.1325-.98319.6626-2.09748 1.7889-2.09748.795 0 1.6564.78656 2.1201 1.63866v5.30929c-2.9152 0-4.9028 1.3109-4.9028 3.7361 0 1.3109.6626 3.2117 2.5839 3.7361v-.3277c-.3312-.3277-.4637-.6555-.4637-1.1143 0-.7866.6625-1.442 1.7888-1.442h.7951v6.7512c-3.4453 0-6.1617 1.9664-6.1617 5.1782 0 3.0807 2.5839 4.5227 5.5654 4.326v-.3277c-1.7889-.1311-2.5839-.9832-2.5839-2.0975 0-1.442.9938-2.0974 2.2526-2.0974 1.3251 0 2.4514.7865 3.2465 1.7697l4.704-5.1781-.3312-.3278-1.1264 1.311c-1.7888-1.6387-2.7826-2.0975-4.9028-2.4253v-16.18988l13.1184 22.54788h.9938v-22.54788c2.3852-.13109 4.7041-2.09748 4.7041-4.85042zm11.8595 21.1714-4.0415 3.0807-4.0415-3.2118v-1.9663l7.6855-5.1782v-.1311l-3.909-5.8336-8.4806 4.5227v10.6185l-1.6564 1.3109.3313.3277 1.4576-1.1143 5.5654 3.9984 7.3542-5.8337c-.0662 0-.265-.5899-.265-.5899zm-8.1493-2.7529v-7.9311l.3313-.1311 3.5777 5.637c.0663 0-3.909 2.4252-3.909 2.4252zm34.7175-8.7177-1.126.7866-3.114-2.5563-3.578 3.2118 1.457 1.442v12.0605l-3.909-2.4252v-9.9631l1.325-.7865-3.776-3.5395-3.578 3.2118 1.458 1.442v11.6017l-.464.3277-3.445-2.4252v-9.6353c0-2.2286-1.126-2.884-2.452-3.7361-1.126-.7866-1.788-1.31097-1.788-2.42526 0-.98319.993-1.44202 1.457-1.76975v-.32773c-1.325 0-4.7039 1.31092-4.7039 4.32604 0 1.6387.795 2.2286 1.6559 3.0807.795.7865 1.657 1.442 1.657 2.884v9.3731l-1.789 1.311.331.3277 1.657-1.3109 3.776 3.2117 4.042-2.7529 4.571 2.7529 8.613-4.9815v-10.8151l2.12-1.6387zm30.344-8.8487-1.656 1.44202-3.578-3.21176-5.366 3.86722v-3.53949h-.464l.132 26.08741c-.463 0-1.987-.3277-3.114-.6555l-.331-21.76132c0-1.63866-1.126-3.86723-4.041-3.86723-2.916 0-4.903 2.22857-4.903 4.52269h.464c.132-.9832.662-1.76975 1.656-1.76975s1.789.65546 1.789 2.75294v6.29247c-2.915.1311-4.704 1.7697-4.704 3.8672 0 1.3109.662 3.2118 2.584 3.2118v-.3278c-.663-.3277-.795-.7865-.795-1.1143 0-.9832.795-1.3109 2.12-1.3109h.662v9.963c-2.451.7866-3.445 2.5563-3.445 4.5227 0 2.753 2.12 4.6538 5.367 4.6538 2.252 0 4.24-.3277 6.161-.7865 1.657-.3278 3.777-.7866 4.704-.7866 1.325 0 1.789.6555 1.789 1.442 0 1.1143-.464 1.6387-1.126 1.7698v.3277c2.584-.4588 4.24-2.0975 4.24-4.5227s-2.451-3.8672-5.035-3.8672c-1.325 0-4.042.4588-6.029.7865-2.253.4589-4.572.7866-5.234.7866-1.127 0-2.452-.4588-2.452-2.0975 0-1.3109 1.127-2.4252 3.909-2.4252 1.458 0 3.247.1311 5.036.6555 1.987.4588 3.776.9832 5.366.9832 2.452 0 4.572-.7866 4.572-4.195v-19.79496l1.987-1.63865zm-6.691 9.8319c-.464.4589-1.127.9832-1.988.9832s-1.656-.4588-1.988-.9832v-7.1445l1.657-1.11429 2.252 2.09748c.067 0 .067 6.16131.067 6.16131zm0 4.7849c-.332-.3277-1.127-.7865-1.988-.7865s-1.656.4588-1.988.7865v-4.1949c.332.3277 1.127.7865 1.988.7865s1.656-.4588 1.988-.7865zm0 7.6034c0 1.3109-.795 2.5563-2.584 2.5563h-1.325v-9.5042c.331-.3278 1.126-.7866 1.987-.7866.862 0 1.458.4588 1.988.7866-.066 0-.066 6.9479-.066 6.9479zm22.327-11.4706-5.234-3.7362-8.016 4.5227v10.4874l-1.657 1.311.133.3277 1.325-.9832 5.234 3.8672 8.149-4.8504c.066.0655.066-10.9462.066-10.9462zm-8.811 10.1596v-11.6016l4.041 2.884v11.4706c.066 0-4.041-2.753-4.041-2.753zm24.315-13.5025h-.331c-.464.3278-.994.6555-1.458.6555-.662 0-1.458-.3277-1.789-.7866h-.331l-2.783 3.0807-2.782-3.0807-4.903 3.2118.132.3277 1.325-.7865 1.657 1.7697v10.1597l-2.12 1.6386.331.3278.994-.7866 3.909 3.2118 5.035-3.4084-.133-.3277-1.457.7865-1.988-1.6387v-11.2739c.795.7866 1.789 1.6387 2.915 1.6387 2.253.131 3.578-2.1631 3.777-4.7194zm19.545 15.4689-5.565 3.7362-7.487-11.274 5.366-8.1933h.332c.662.6555 1.656 1.311 2.782 1.311 1.127 0 1.988-.6555 2.452-1.311h.331c-.132 3.2118-2.451 5.1782-4.041 5.1782-1.657 0-2.452-.7866-3.446-1.3109l-.463.7865 8.149 11.9294 1.656-.9832v.1311zm-17.955-.7865-2.12 1.6386.331.3278.994-.7866 3.578 3.2118 4.903-3.2118-.332-.3277-1.325.7865-1.656-1.6386v-24.842038h-.133l-5.896 3.867228v.32773c.662.32773 1.656.45882 1.656 2.42521zm44.987-21.49918c0-3.211765-3.114-3.99832-5.566-3.99832v.458824c1.458 0 2.584.458823 2.584 1.638656 0 .65546-.463 1.63865-1.987 1.63865-1.127 0-3.578-.65546-5.367-1.31092-2.12-.65546-4.041-1.31092-5.698-1.31092-3.246 0-5.565 2.42521-5.565 5.17815 0 2.42521 1.789 3.21176 2.451 3.53949l.133-.32773c-.464-.32773-.994-.65546-.994-1.63865 0-.65547.662-1.76975 2.253-1.76975 1.457 0 3.445.65546 6.029 1.44202 2.252.65546 4.704 1.11428 6.029 1.31092v4.98156l-2.452 2.0974v.1311l2.452 2.0975v6.9479c-1.325.7866-2.783.9832-4.042.9832-2.451 0-4.571-.6555-6.36-2.5563l6.692-3.2118v-11.27392l-8.15 3.53952c.795-2.0975 2.584-3.53952 4.241-4.65381l-.133-.32773c-4.903 1.31093-9.275 5.63694-9.275 11.14284 0 6.4235 5.366 11.274 11.395 11.274 6.493 0 10.733-5.1782 10.733-10.4874h-.331c-.994 2.0975-2.451 3.9983-4.24 4.9815v-6.6202l2.584-2.0975v-.1311l-2.452-2.0974v-4.85045c2.584 0 5.036-1.63866 5.036-4.71933zm-14.179 17.76298-1.987.9832c-1.127-1.442-1.789-3.4084-1.789-6.0958 0-1.1142.132-2.4252.464-3.4084l3.445-1.442zm19.877-19.33609h-.199l-3.247 2.75294v.13109l2.783 3.08068h.331l3.247-2.75294v-.1311zm4.903 23.85879-1.326.7866-1.656-1.6387v-11.1428l1.656-1.1143-.331-.3277-1.126.9832-2.915-3.4085-4.704 3.2118.331.4588 1.126-.7865 1.458 1.7697v10.4874l-2.12 1.6387.132.3277 1.126-.7865 3.578 3.2117 4.903-3.2117zm27.164-.1966-1.127.7866-1.788-1.6387v-10.8807l1.656-1.3109-.331-.3277-1.325 1.1143-3.777-3.4085-4.903 3.4085-3.776-3.4085-4.572 3.4085-2.915-3.4085-4.704 3.2118.132.4588 1.127-.7865 1.656 1.7697v10.4874l-1.325 1.311 3.777 3.0806 3.577-3.2117-1.457-1.4421v-10.9462l1.457-.9832 2.452 2.2286v9.7008l-1.325 1.311 3.776 3.0806 3.578-3.2117-1.458-1.442v-10.6841l1.325-.7865 2.584 2.2285v9.7009l-1.126 1.1143 3.776 3.4084 5.036-3.4084zm14.178-2.3597-4.041 3.0807-4.042-3.2118v-1.9663l7.686-5.1782v-.1311l-3.909-5.8336-8.481 4.5227v10.9462l5.698 3.9983 7.354-5.8336c-.066.0656-.265-.3933-.265-.3933zm-8.149-2.7529v-7.9311l.331-.1311 3.578 5.637zm22.99-1.442-3.114-2.4252c2.12-1.7698 2.915-4.195 2.915-5.8336v-.9832h-.331c-.331.7865-.994 1.6386-2.252 1.6386-1.326 0-2.121-.6555-2.916-1.6386l-7.354 3.9983v5.8336l2.783 2.0975c-2.783 2.4252-3.247 3.9983-3.247 5.3092 0 1.6387.795 2.753 2.12 3.2118l.133-.3278c-.331-.3277-.663-.4588-.663-1.3109 0-.4588.663-1.3109 1.988-1.3109 1.656 0 2.584 1.1143 3.114 1.6387l7.023-4.195v-5.8336c0 .1311-.199.1311-.199.1311zm-1.789-4.8504c-1.126 1.9663-3.577 3.8672-5.035 4.8504l-1.789-1.442v-5.637c.663 1.6386 2.452 2.884 4.24 2.884 1.127 0 1.789-.1966 2.584-.6554zm-2.782 12.9126c-.795-1.7698-2.783-3.0807-4.704-3.0807-.464 0-1.789 0-3.114.7865.795-1.3109 2.915-3.5395 5.698-5.1781l1.987 1.6386z" fill="#333"/></g></svg>