<svg width="301" height="46" viewBox="0 0 301 46" fill="none" xmlns="http://www.w3.org/2000/svg">
<g clip-path="url(#clip0_3817_3760)">
<path d="M45.8923 22.5742C45.8923 35.0006 35.8381 45.0742 23.4332 45.0742C11.0307 45.0742 0.976562 35.0006 0.976562 22.5742C0.976562 10.1478 11.0307 0.0742188 23.4332 0.0742188C35.8381 0.0742188 45.8923 10.1478 45.8923 22.5742Z" fill="#333333"/>
<path d="M66.8795 32.2308C63.3445 32.2308 61.3717 30.0636 61.3717 26.2409V6.83618H52.6094V26.1907C52.6094 34.689 57.7867 39.5452 66.8795 39.5452C75.9723 39.5452 81.1496 34.689 81.1496 26.1907V6.83618H72.3872V26.2409C72.3872 30.0636 70.4144 32.2308 66.8795 32.2308Z" fill="#333333"/>
<path d="M96.6156 39.5452C104.296 39.5452 109.333 35.4415 109.333 29.3512C109.333 25.0067 106.74 21.6556 99.8601 19.7693L97.4568 19.1071C94.0219 18.1639 92.7501 17.1305 92.7501 15.6154C92.7501 14.0101 94.1621 13.1171 96.6556 13.1171C99.6799 13.1171 102.924 14.8127 105.188 16.7492L109.564 11.2308C106.129 8.1104 101.512 6.22412 96.6156 6.22412C89.2152 6.22412 84.0379 10.2375 84.0379 16.4181C84.0379 21.184 87.1422 24.3044 92.8903 25.8094L94.8731 26.3312C99.1591 27.4649 100.621 28.3178 100.621 30.0134C100.621 31.7592 99.1091 32.6522 96.5655 32.6522C92.8002 32.6522 89.6858 31.2877 87.1422 29.0201L82.9062 34.3579C86.4412 37.6589 91.3882 39.5452 96.6156 39.5452Z" fill="#333333"/>
<path d="M134.342 38.9332H143.255L131.518 6.83618H121.344L109.617 38.9332H118.279L120.312 32.9432H132.319L134.342 38.9332ZM122.525 26.4215L126.341 15.194L130.106 26.4215H122.525Z" fill="#333333"/>
<path d="M160.158 38.9332H168.92V13.9198H178.444V6.83618H150.645V13.9198H160.158V38.9332Z" fill="#333333"/>
<path d="M194.856 39.5452C204.46 39.5452 211.479 32.7024 211.479 22.9298C211.479 13.1673 204.46 6.22412 194.856 6.22412C185.243 6.22412 178.223 13.1673 178.223 22.9298C178.223 32.7024 185.243 39.5452 194.856 39.5452ZM194.856 32.281C190.29 32.281 187.125 28.4984 187.125 22.9298C187.125 17.3612 190.29 13.4984 194.856 13.4984C199.423 13.4984 202.577 17.3612 202.577 22.9298C202.577 28.4984 199.423 32.281 194.856 32.281Z" fill="#333333"/>
<path d="M214.508 38.9332H227.126C236.599 38.9332 243.338 32.3211 243.338 22.8897C243.338 13.4482 236.599 6.83618 227.126 6.83618H214.508V38.9332ZM223.13 32.0001V13.7793H227.126C231.742 13.7793 234.576 17.4114 234.576 22.8897C234.576 28.3579 231.742 32.0001 227.126 32.0001H223.13Z" fill="#333333"/>
<path d="M266.447 38.9332H275.36L263.623 6.83618H253.449L241.723 38.9332H250.385L252.418 32.9432H264.425L266.447 38.9332ZM254.631 26.4215L258.446 15.194L262.211 26.4215H254.631Z" fill="#333333"/>
<path d="M289.63 27.3746L300.976 6.83618H291.092L285.203 19.5786L279.265 6.83618H269.371L280.727 27.3746V38.9332H289.63V27.3746Z" fill="#333333"/>
</g>
<defs>
<clipPath id="clip0_3817_3760">
<rect width="300" height="45" fill="white" transform="translate(0.976562 0.0742188)"/>
</clipPath>
</defs>
</svg>
